<?xml version="1.0" encoding="iso-8859-1"?>
<!-- Generator: Adobe Illustrator 21.1.0, SVG Export Plug-In . SVG Version: 6.00 Build 0)  -->
<svg version="1.1" id="Layer_1" xmlns="http://www.w3.org/2000/svg" xmlns:xlink="http://www.w3.org/1999/xlink" x="0px" y="0px"
	 viewBox="0 0 560 560" style="enable-background:new 0 0 560 560;" xml:space="preserve">
<g>
	
		<rect x="186.185" y="137.132" transform="matrix(0.0089 -1 1 0.0089 18.1308 384.2203)" style="fill:none;" width="33.404" height="91.663"/>
	<path style="stroke:#FFFFFF;stroke-miterlimit:10;" d="M178.716,166.142l1.723,2.883l-3.674,26.104l-6.926,0.721l-1.758-2.936
		l-0.105,0.018l-0.809-4.764l-1.371,7.945l-6.75-0.088l-1.74-2.918h-0.123l4.447-26.543l7.225-0.211l0.035,0.264l1.705,2.83
		l0.211,1.371l0.686-4.904l7.26,0.018L178.716,166.142z M177.31,167.442l-4.799-0.035l-2.285,16.225l-2.479-15.75l-5.168,0.158
		l-3.955,23.572l4.5,0.07l2.971-17.525l2.936,17.191l5.01-0.51L177.31,167.442z"/>
	<path style="stroke:#FFFFFF;stroke-miterlimit:10;" d="M195.802,184.177l1.775,2.883l-1.178,7.471l-16.26,2.004l-1.775-2.936
		l-0.105,0.018l3.779-26.578l16.664-2.057l-0.018,0.211l1.758,2.865l-1.107,7.805l-5.062,0.668l1.283,2.057l-0.844,5.52l1.143-0.141
		L195.802,184.177z M194.36,185.618l-10.406,1.318l0.633-4.711l7.172-0.756l0.598-4.307l-6.1,0.703l0.58-5.027l9.721-1.23
		l0.721-4.992l-14.203,1.775l-3.322,23.59l13.887-1.723L194.36,185.618z"/>
	<path style="stroke:#FFFFFF;stroke-miterlimit:10;" d="M212.624,184.054l1.74,2.883l-1.037,7.312l-14.291,1.828l-1.74-2.936
		l-0.141,0.035l3.41-26.947l6.521-0.439l-0.035,0.211l1.74,2.865l-2.127,15.785l5.994-0.809L212.624,184.054z M211.183,185.495
		l-8.156,1.072l2.619-19.195l-4.061,0.264l-2.971,23.889l11.953-1.529L211.183,185.495z"/>
	<path style="stroke:#FFFFFF;stroke-miterlimit:10;" d="M213.187,192.913h-0.141l4.324-26.385c0.234-0.023,0.542-0.047,0.923-0.07
		s0.773-0.047,1.178-0.07s0.8-0.044,1.187-0.062s0.709-0.026,0.967-0.026c3.188,0,5.889,0.381,8.104,1.143
		c2.402,0.855,3.92,2.145,4.553,3.867l1.318,2.18c0.691,1.195,0.873,2.607,0.545,4.236c-0.598,2.824-2.83,5.262-6.697,7.312
		c-2.004,1.09-4.271,1.992-6.803,2.707l-1.266,8.227l-6.451-0.158L213.187,192.913z M233.173,174.72
		c0.574-2.742-0.797-4.693-4.113-5.854c-2.039-0.715-4.629-1.072-7.77-1.072c-0.516,0-1.017,0.009-1.503,0.026
		s-0.964,0.05-1.433,0.097l-3.85,23.52l4.184,0.088l1.195-7.893c2.883-0.773,5.402-1.723,7.559-2.848
		C230.794,179.003,232.704,176.981,233.173,174.72z M228.497,174.79c-0.516,2.273-3.41,3.621-8.684,4.043l1.143-7.225
		c0.41-0.059,0.82-0.103,1.23-0.132s0.82-0.044,1.23-0.044C227.261,171.433,228.954,172.552,228.497,174.79z M224.929,175.827
		c-0.211,0-0.416,0.006-0.615,0.018s-0.404,0.029-0.615,0.053l-0.193,0.984c0.668-0.129,1.236-0.275,1.705-0.439
		s0.861-0.346,1.178-0.545c-0.223-0.023-0.457-0.041-0.703-0.053S225.187,175.827,224.929,175.827z"/>
	<path style="stroke:#FFFFFF;stroke-miterlimit:10;" d="M246.954,166.142l-0.07,0.176l1.74,2.918l-5.766,18.176l0.633,1.02
		l-1.951,7.752l-6.047-0.826l-1.775-2.9h-0.158l1.951-7.646l0.492,0.053l4.078-18.562L246.954,166.142z M236.319,186.392
		l-1.16,4.711l3.814,0.51l1.248-4.852L236.319,186.392z M240.942,167.759l-3.568,16.453l2.707-0.246l5.15-16.295L240.942,167.759z"
		/>
</g>
<g>
</g>
<g>
</g>
<g>
</g>
<g>
</g>
<g>
</g>
</svg>
